<?xml version="1.0" encoding="UTF-8" standalone="no"?>
<!-- Generator: Adobe Illustrator 15.0.2, SVG Export Plug-In . SVG Version: 6.00 Build 0)  -->

<svg
   xmlns:dc="http://purl.org/dc/elements/1.1/"
   xmlns:cc="http://creativecommons.org/ns#"
   xmlns:rdf="http://www.w3.org/1999/02/22-rdf-syntax-ns#"
   xmlns:svg="http://www.w3.org/2000/svg"
   xmlns="http://www.w3.org/2000/svg"
   xmlns:sodipodi="http://sodipodi.sourceforge.net/DTD/sodipodi-0.dtd"
   xmlns:inkscape="http://www.inkscape.org/namespaces/inkscape"
   version="1.1"
   id="Layer_1"
   x="0px"
   y="0px"
   width="834.25"
   height="834.25201"
   viewBox="0 0 834.25 834.252"
   enable-background="new 0 0 512 834.252"
   xml:space="preserve"
   inkscape:version="0.48.4 r9939"
   sodipodi:docname="walk.svg"><metadata
   id="metadata9"><rdf:RDF><cc:Work
       rdf:about=""><dc:format>image/svg+xml</dc:format><dc:type
         rdf:resource="http://purl.org/dc/dcmitype/StillImage" /></cc:Work></rdf:RDF></metadata><defs
   id="defs7" /><sodipodi:namedview
   pagecolor="#ffffff"
   bordercolor="#666666"
   borderopacity="1"
   objecttolerance="10"
   gridtolerance="10"
   guidetolerance="10"
   inkscape:pageopacity="0"
   inkscape:pageshadow="2"
   inkscape:window-width="1920"
   inkscape:window-height="1017"
   id="namedview5"
   showgrid="false"
   inkscape:zoom="0.28288814"
   inkscape:cx="-846.90944"
   inkscape:cy="417.12601"
   inkscape:window-x="-8"
   inkscape:window-y="-8"
   inkscape:window-maximized="1"
   inkscape:current-layer="Layer_1" />
<path
   d="m 462.56003,2.8052715e-5 c 42.414,0 76.772,34.358999947285 76.772,76.771999947285 0,42.413002 -34.358,76.772002 -76.772,76.772002 -42.402,0 -76.772,-34.359 -76.772,-76.772002 0,-42.413 34.369,-76.771999947285 76.772,-76.771999947285 z M 610.62103,794.50003 c 3.77,17.779 -7.583,35.259 -25.341,39.028 -17.779,3.771 -35.237,-7.562 -39.029,-25.341 l -37.594,-176.958 -0.6,-3.941 -112.191,-133.687 -31.811,-8.847 -17.329,123.363 c -1.05,7.476 -11.589,29.796 -14.77,34.68 l -110.327,169.91 c -9.896,15.23 -30.279,19.558 -45.52,9.661 -15.241,-9.897 -19.568,-30.268 -9.671,-45.52 l 115.126,-177.9 22.609,-178.606 c 1.007,-7.176 15.23,-73.816 37.005,-168.347 l -82.373,43.977 -22.075,114.538 c -2.859,14.865 -17.244,24.591 -32.11,21.742 -14.866,-2.871 -24.602,-17.244 -21.731,-32.11 l 22.61,-117.322 c 0.354,-1.842 6.951,-24.27 16.076,-29.132 l 148.896,-79.493 c 1.639,-0.878 30.492,-15.166 50.96,-15.166 37.315,0 68.547,16.451 74.009,48.025 l 60.343,129.403 0.536,1.222 100.1,42.499 c 13.923,5.912 20.436,22.021 14.523,35.944 -5.912,13.944 -22.021,20.436 -35.944,14.522 l -107.704,-45.712 c -7.798,-3.299 -13.26,-9.768 -21.207,-25.298 l -27.161,-58.2 -32.389,150.182 114.28,136.172 c 4.605,5.484 11.332,25.705 12.188,29.775 l 37.616,176.937 z"
   id="path3"
   inkscape:connector-curvature="0"
   style="fill:#333333;fill-opacity:1" />
</svg>